GRF
version=1
nRows=37
nColumns=19
inDegrees=no
endheader
time	ground_force_vx	ground_force_vy	ground_force_vz	ground_force_px	ground_force_py	ground_force_pz	ground_torque_x	ground_torque_y	ground_torque_z	1_ground_force_vx	1_ground_force_vy	1_ground_force_vz	1_ground_force_px	1_ground_force_py	1_ground_force_pz	1_ground_torque_x	1_ground_torque_y	1_ground_torque_z
      3.50000000	    -43.59475532	    310.37703642	      2.41217950	      0.18524024	     -0.00000000	     -0.04995577	      0.00000000	      0.86906425	     -0.00000000	     51.73434313	    400.47346956	     -5.56117210	     -0.25420335	      0.00000000	     -0.04953531	      0.00000000	      2.69729101	     -0.00000000
      3.50100000	    -43.59792786	    310.44667685	      2.42091591	      0.18523235	     -0.00000000	     -0.04995177	      0.00000000	      0.87489622	     -0.00000000	     51.72708806	    400.41202171	     -5.57938518	     -0.25419806	      0.00000000	     -0.04953394	      0.00000000	      2.70068393	     -0.00000000
      3.50200000	    -43.60139830	    310.51870625	      2.43010184	      0.18522454	     -0.00000000	     -0.04994859	      0.00000000	      0.88086852	     -0.00000000	     51.71890104	    400.34971757	     -5.59745217	     -0.25419254	      0.00000000	     -0.04953253	      0.00000000	      2.70407385	     -0.00000000
      3.50300000	    -43.60519382	    310.59302307	      2.43974070	      0.18521678	     -0.00000000	     -0.04994632	      0.00000000	      0.88695826	     -0.00000000	     51.70979900	    400.28658548	     -5.61533686	     -0.25418677	      0.00000000	     -0.04953114	      0.00000000	      2.70745662	     -0.00000000
      3.50400000	    -43.60934208	    310.66952544	      2.44983387	      0.18520908	     -0.00000000	     -0.04994507	      0.00000000	      0.89314190	     -0.00000000	     51.69980152	    400.22265385	     -5.63300523	     -0.25418078	      0.00000000	     -0.04952982	      0.00000000	      2.71082851	     -0.00000000
      3.50500000	    -43.61387104	    310.74811156	      2.46038060	      0.18520142	     -0.00000000	     -0.04994493	      0.00000000	      0.89939539	     -0.00000000	     51.68893061	    400.15795117	     -5.65042561	     -0.25417455	      0.00000000	     -0.04952863	      0.00000000	      2.71418612	     -0.00000000
      3.50600000	    -43.61880873	    310.82868017	      2.47137802	      0.18519379	     -0.00000000	     -0.04994600	      0.00000000	      0.90569435	     -0.00000000	     51.67721051	    400.09250588	     -5.66756883	     -0.25416811	      0.00000000	     -0.04952763	      0.00000000	      2.71752639	     -0.00000000
      3.50700000	    -43.62418306	    310.91113098	      2.48282115	      0.18518619	     -0.00000000	     -0.04994835	      0.00000000	      0.91201426	     -0.00000000	     51.66466747	    400.02634632	     -5.68440830	     -0.25416145	      0.00000000	     -0.04952687	      0.00000000	      2.72084659	     -0.00000000
      3.50800000	    -43.63002166	    310.99536502	      2.49470288	      0.18517860	     -0.00000000	     -0.04995207	      0.00000000	      0.91833059	     -0.00000000	     51.65132952	    399.95950069	     -5.70092012	     -0.25415460	      0.00000000	     -0.04952639	      0.00000000	      2.72414422	     -0.00000000
      3.50900000	    -43.63635166	    311.08128509	      2.50701407	      0.18517102	     -0.00000000	     -0.04995724	      0.00000000	      0.92461902	     -0.00000000	     51.63722624	    399.89199685	     -5.71708317	     -0.25414755	      0.00000000	     -0.04952627	      0.00000000	      2.72741702	     -0.00000000
      3.51000000	    -43.64319951	    311.16879610	      2.51974356	      0.18516345	     -0.00000000	     -0.04996392	      0.00000000	      0.93085556	     -0.00000000	     51.62238849	    399.82386231	     -5.73287912	     -0.25414032	      0.00000000	     -0.04952653	      0.00000000	      2.73066289	     -0.00000000
      3.51100000	    -43.65059085	    311.25780542	      2.53287829	      0.18515588	     -0.00000000	     -0.04997219	      0.00000000	      0.93701676	     -0.00000000	     51.60684818	    399.75512405	     -5.74829246	     -0.25413292	      0.00000000	     -0.04952723	      0.00000000	      2.73387984	     -0.00000000
      3.51200000	    -43.65855031	    311.34822322	      2.54640338	      0.18514831	     -0.00000000	     -0.04998208	      0.00000000	      0.94307984	     -0.00000000	     51.59063800	    399.68580842	     -5.76331052	     -0.25412536	      0.00000000	     -0.04952840	      0.00000000	      2.73706598	     -0.00000000
      3.51300000	    -43.66710140	    311.43996278	      2.56030224	      0.18514073	     -0.00000000	     -0.04999366	      0.00000000	      0.94902285	     -0.00000000	     51.57379121	    399.61594101	     -5.77792344	     -0.25411765	      0.00000000	     -0.04953008	      0.00000000	      2.74021938	     -0.00000000
      3.51400000	    -43.67626635	    311.53294078	      2.57455670	      0.18513314	     -0.00000000	     -0.05000697	      0.00000000	      0.95482480	     -0.00000000	     51.55634132	    399.54554648	     -5.79212410	     -0.25410981	      0.00000000	     -0.04953231	      0.00000000	      2.74333808	     -0.00000000
      3.51500000	    -43.68606602	    311.62707752	      2.58914716	      0.18512556	     -0.00000000	     -0.05002202	      0.00000000	      0.96046580	     -0.00000000	     51.53832190	    399.47464848	     -5.80590812	     -0.25410184	      0.00000000	     -0.04953511	      0.00000000	      2.74642001	     -0.00000000
      3.51600000	    -43.69651979	    311.72229722	      2.60405272	      0.18511796	     -0.00000000	     -0.05003885	      0.00000000	      0.96592718	     -0.00000000	     51.51976631	    399.40326945	     -5.81927370	     -0.25409377	      0.00000000	     -0.04953851	      0.00000000	      2.74946291	     -0.00000000
      3.51700000	    -43.70764550	    311.81852816	      2.61925135	      0.18511037	     -0.00000000	     -0.05005748	      0.00000000	      0.97119155	     -0.00000000	     51.50070749	    399.33143052	     -5.83222160	     -0.25408560	      0.00000000	     -0.04954253	      0.00000000	      2.75246432	     -0.00000000
      3.51800000	    -43.71945935	    311.91570294	      2.63472004	      0.18510277	     -0.00000000	     -0.05007790	      0.00000000	      0.97624296	     -0.00000000	     51.48117770	    399.25915136	     -5.84475496	     -0.25407734	      0.00000000	     -0.04954718	      0.00000000	      2.75542151	     -0.00000000
      3.51900000	    -43.73197591	    312.01375857	      2.65043496	      0.18509517	     -0.00000000	     -0.05010012	      0.00000000	      0.98106689	     -0.00000000	     51.46120835	    399.18645009	     -5.85687920	     -0.25406901	      0.00000000	     -0.04955247	      0.00000000	      2.75833139	     -0.00000000
      3.52000000	    -43.74520804	    312.11263667	      2.66637165	      0.18508758	     -0.00000000	     -0.05012412	      0.00000000	      0.98565036	     -0.00000000	     51.44082977	    399.11334308	     -5.86860190	     -0.25406063	      0.00000000	     -0.04955842	      0.00000000	      2.76119054	     -0.00000000
      3.52100000	    -43.75916693	    312.21228353	      2.68250515	      0.18507999	     -0.00000000	     -0.05014989	      0.00000000	      0.98998194	     -0.00000000	     51.42007105	    399.03984492	     -5.87993259	     -0.25405219	      0.00000000	     -0.04956501	      0.00000000	      2.76399514	     -0.00000000
      3.52200000	    -43.77386208	    312.31265025	      2.69881019	      0.18507242	     -0.00000000	     -0.05017739	      0.00000000	      0.99405181	     -0.00000000	     51.39895984	    398.96596827	     -5.89088265	     -0.25404372	      0.00000000	     -0.04957225	      0.00000000	      2.76674092	     -0.00000000
      3.52300000	    -43.78930136	    312.41369275	      2.71526132	      0.18506487	     -0.00000000	     -0.05020660	      0.00000000	      0.99785169	     -0.00000000	     51.37752225	    398.89172379	     -5.90146511	     -0.25403523	      0.00000000	     -0.04958013	      0.00000000	      2.76942317	     -0.00000000
      3.52400000	    -43.80549104	    312.51537186	      2.73183310	      0.18505735	     -0.00000000	     -0.05023746	      0.00000000	      1.00137491	     -0.00000000	     51.35578267	    398.81712006	     -5.91169450	     -0.25402673	      0.00000000	     -0.04958863	      0.00000000	      2.77203674	     -0.00000000
      3.52500000	    -43.82243584	    312.61765333	      2.74850019	      0.18504985	     -0.00000000	     -0.05026994	      0.00000000	      1.00461633	     -0.00000000	     51.33376370	    398.74216348	     -5.92158664	     -0.25401822	      0.00000000	     -0.04959775	      0.00000000	      2.77457600	     -0.00000000
      3.52600000	    -43.84013903	    312.72050780	      2.76523756	      0.18504240	     -0.00000000	     -0.05030396	      0.00000000	      1.00757231	     -0.00000000	     51.31148601	    398.66685826	     -5.93115851	     -0.25400972	      0.00000000	     -0.04960746	      0.00000000	      2.77703488	     -0.00000000
      3.52700000	    -43.85860254	    312.82391081	      2.78202053	      0.18503499	     -0.00000000	     -0.05033947	      0.00000000	      1.01024066	     -0.00000000	     51.28896834	    398.59120633	     -5.94042807	     -0.25400124	      0.00000000	     -0.04961774	      0.00000000	      2.77940686	     -0.00000000
      3.52800000	    -43.87782701	    312.92784275	      2.79882497	      0.18502764	     -0.00000000	     -0.05037640	      0.00000000	      1.01262057	     -0.00000000	     51.26622739	    398.51520733	     -5.94941406	     -0.25399279	      0.00000000	     -0.04962856	      0.00000000	      2.78168503	     -0.00000000
      3.52900000	    -43.89781193	    313.03228876	      2.81562737	      0.18502034	     -0.00000000	     -0.05041468	      0.00000000	      1.01471253	     -0.00000000	     51.24327783	    398.43885859	     -5.95813587	     -0.25398437	      0.00000000	     -0.04963990	      0.00000000	      2.78386212	     -0.00000000
      3.53000000	    -43.91855580	    313.13723868	      2.83240494	      0.18501312	     -0.00000000	     -0.05045423	      0.00000000	      1.01651824	     -0.00000000	     51.22013229	    398.36215509	     -5.96661335	     -0.25397600	      0.00000000	     -0.04965173	      0.00000000	      2.78593052	     -0.00000000
      3.53100000	    -43.94005618	    313.24268693	      2.84913569	      0.18500598	     -0.00000000	     -0.05049495	      0.00000000	      1.01804051	     -0.00000000	     51.19680134	    398.28508945	     -5.97486670	     -0.25396768	      0.00000000	     -0.04966401	      0.00000000	      2.78788237	     -0.00000000
      3.53200000	    -43.96230988	    313.34863236	      2.86579856	      0.18499892	     -0.00000000	     -0.05053678	      0.00000000	      1.01928317	     -0.00000000	     51.17329359	    398.20765193	     -5.98291629	     -0.25395942	      0.00000000	     -0.04967672	      0.00000000	      2.78970963	     -0.00000000
      3.53300000	    -43.98531309	    313.45507811	      2.88237342	      0.18499197	     -0.00000000	     -0.05057962	      0.00000000	      1.02025094	     -0.00000000	     51.14961571	    398.12983044	     -5.99078253	     -0.25395124	      0.00000000	     -0.04968982	      0.00000000	      2.79140412	     -0.00000000
      3.53400000	    -44.00906149	    313.56203145	      2.89884121	      0.18498512	     -0.00000000	     -0.05062338	      0.00000000	      1.02094936	     -0.00000000	     51.12577250	    398.05161049	     -5.99848577	     -0.25394312	      0.00000000	     -0.04970327	      0.00000000	      2.79295764	     -0.00000000
      3.53500000	    -44.03355039	    313.66950358	      2.91518391	      0.18497839	     -0.00000000	     -0.05066797	      0.00000000	      1.02138464	     -0.00000000	     51.10176699	    397.97297526	     -6.00604615	     -0.25393509	      0.00000000	     -0.04971705	      0.00000000	      2.79436204	     -0.00000000
      3.53600000	    -44.05877486	    313.77750939	      2.93138469	      0.18497179	     -0.00000000	     -0.05071330	      0.00000000	      1.02156358	     -0.00000000	     51.07760055	    397.89390551	     -6.01348351	     -0.25392714	      0.00000000	     -0.04973112	      0.00000000	      2.79560932	     -0.00000000
